<svg width="42" height="41" viewBox="0 0 42 41" fill="none" xmlns="http://www.w3.org/2000/svg">
<path d="M13.0381 39.0096H28.7141C34.6078 39.0096 39.3856 34.2318 39.3856 28.3381V12.6621C39.3856 6.76842 34.6078 1.99062 28.7141 1.99062H13.0381C7.14439 1.99062 2.3666 6.76842 2.3666 12.6621V28.3381C2.3666 34.2318 7.14439 39.0096 13.0381 39.0096Z" fill="#232A33" stroke="#2E3745" stroke-width="1.387"/>
<mask id="mask0_5144_1459" style="mask-type:luminance" maskUnits="userSpaceOnUse" x="7" y="7" width="27" height="27">
<path d="M7.87695 33.5H33.877V7.5H7.87695V33.5Z" fill="white"/>
</mask>
<g mask="url(#mask0_5144_1459)">
<path d="M17.9189 10.6056C18.3368 10.602 18.7498 10.6952 19.1257 10.8777C19.5016 11.0602 19.8303 11.3271 20.0859 11.6576L20.8909 12.7276C21.1479 13.0476 21.5309 13.2396 21.9429 13.2396H24.7509C28.1259 13.2396 29.7719 15.0416 29.7629 18.7366V23.1906C29.7629 26.7206 27.5859 28.8976 24.0469 28.8976H17.1769C13.6569 28.8976 11.4709 26.7206 11.4709 23.1816V16.3126C11.4709 12.5266 13.1539 10.6056 16.4739 10.6056H17.9189ZM24.8519 21.3886H16.3819C16.2916 21.3878 16.2021 21.405 16.1185 21.4392C16.0349 21.4733 15.9589 21.5238 15.8951 21.5877C15.8312 21.6516 15.7807 21.7275 15.7465 21.8111C15.7123 21.8947 15.6951 21.9843 15.6959 22.0746C15.6959 22.4496 15.9979 22.7606 16.3819 22.7606H24.8519C25.2269 22.7606 25.5279 22.4506 25.5279 22.0746C25.5291 21.985 25.5125 21.8961 25.4791 21.813C25.4457 21.7298 25.3961 21.6542 25.3332 21.5904C25.2703 21.5266 25.1954 21.4759 25.1128 21.4412C25.0302 21.4066 24.9415 21.3887 24.8519 21.3886Z" fill="#CDCDCD"/>
</g>
</svg>
