<svg width="42" height="41" viewBox="0 0 42 41" fill="none" xmlns="http://www.w3.org/2000/svg">
<path d="M13.1172 39.0096H28.7932C34.6869 39.0096 39.4647 34.2318 39.4647 28.3381V12.6621C39.4647 6.76842 34.6869 1.99062 28.7932 1.99062H13.1172C7.22349 1.99062 2.4457 6.76842 2.4457 12.6621V28.3381C2.4457 34.2318 7.22349 39.0096 13.1172 39.0096Z" fill="#232A33" stroke="#2E3745" stroke-width="1.387"/>
<mask id="mask0_5144_1466" style="mask-type:luminance" maskUnits="userSpaceOnUse" x="6" y="5" width="30" height="31">
<path d="M6.20898 35.7539H35.7V5.24591H6.20898V35.7539Z" fill="white"/>
</mask>
<g mask="url(#mask0_5144_1466)">
<path fill-rule="evenodd" clip-rule="evenodd" d="M20.0281 20.3049C19.7956 19.9364 19.4735 19.6327 19.092 19.4223C18.7104 19.2119 18.2818 19.1016 17.8461 19.1016C17.4104 19.1016 16.9817 19.2119 16.6002 19.4223C16.2186 19.6327 15.8966 19.9364 15.6641 20.3049L12.3471 25.4209C11.2541 27.1059 12.4211 29.3709 14.3831 29.3709H26.8551C28.8171 29.3709 29.9851 27.1059 28.8911 25.4209L26.8691 22.3029C26.685 22.0108 26.4299 21.7702 26.1275 21.6036C25.8251 21.437 25.4854 21.3499 25.1402 21.3504C24.795 21.3509 24.4555 21.439 24.1536 21.6065C23.8517 21.7739 23.5973 22.0153 23.4141 22.3079C23.2391 22.5789 23.0071 22.7979 22.7391 22.9509C22.2641 23.2229 21.7191 22.9129 21.4171 22.4459L20.0271 20.3059L20.0281 20.3049Z" fill="#CDCDCD"/>
<path d="M28.113 14.6465C28.113 16.3035 26.813 17.6465 25.212 17.6465C23.61 17.6465 22.312 16.3035 22.312 14.6465C22.312 12.9895 23.61 11.6465 25.212 11.6465C26.814 11.6465 28.113 12.9895 28.113 14.6465Z" fill="#CDCDCD"/>
</g>
</svg>
