<svg width="41" height="41" viewBox="0 0 41 41" fill="none" xmlns="http://www.w3.org/2000/svg">
<path d="M12.5581 39.0096H28.2341C34.1278 39.0096 38.9056 34.2318 38.9056 28.3381V12.6621C38.9056 6.76842 34.1278 1.99062 28.2341 1.99062H12.5581C6.66441 1.99062 1.88662 6.76842 1.88662 12.6621V28.3381C1.88662 34.2318 6.66441 39.0096 12.5581 39.0096Z" fill="#232A33" stroke="#2E3745" stroke-width="1.387"/>
<mask id="mask0_5144_1497" style="mask-type:luminance" maskUnits="userSpaceOnUse" x="8" y="8" width="25" height="25">
<path d="M8.396 32.5H32.396V8.5H8.396V32.5Z" fill="white"/>
</mask>
<g mask="url(#mask0_5144_1497)">
<mask id="mask1_5144_1497" style="mask-type:luminance" maskUnits="userSpaceOnUse" x="8" y="8" width="25" height="25">
<path d="M8.396 32.5H32.396V8.5H8.396V32.5Z" fill="white"/>
</mask>
<g mask="url(#mask1_5144_1497)">
<path d="M20.485 11.1957C15.395 11.1517 11.14 15.3277 11.096 20.4187C11.0783 21.997 11.4664 23.5534 12.223 24.9387C12.382 25.2287 12.423 25.5717 12.356 25.8987L11.988 27.6527C11.9552 27.8082 11.9626 27.9696 12.0098 28.1215C12.0569 28.2734 12.1421 28.4107 12.2572 28.5203C12.3724 28.63 12.5137 28.7083 12.6677 28.7479C12.8217 28.7876 12.9833 28.7871 13.137 28.7467L14.584 28.3667C14.7646 28.3182 14.9531 28.3059 15.1384 28.3306C15.3238 28.3553 15.5024 28.4165 15.664 28.5107C17.3437 29.5032 19.293 29.9426 21.236 29.7667C25.726 29.3727 29.336 25.7117 29.671 21.2177C30.081 15.7807 25.819 11.2427 20.485 11.1957Z" fill="#CDCDCD"/>
</g>
</g>
</svg>
