<svg width="41" height="41" viewBox="0 0 41 41" fill="none" xmlns="http://www.w3.org/2000/svg">
<rect x="1.53125" y="1.46094" width="38.2109" height="38.2109" rx="11.3651" fill="#242A32"/>
<rect x="1.53125" y="1.46094" width="38.2109" height="38.2109" rx="11.3651" stroke="#303A49" stroke-width="1.38672"/>
<mask id="mask0_5211_1408" style="mask-type:luminance" maskUnits="userSpaceOnUse" x="10" y="10" width="21" height="21">
<path d="M30.0722 10.0215H10.7129V30.5117H30.0722V10.0215Z" fill="white"/>
</mask>
<g mask="url(#mask0_5211_1408)">
<path d="M27.2005 22.9537C25.72 27.338 21.585 30.2255 17.2128 27.7266C16.8979 27.5466 16.4931 27.7062 16.3908 28.0579C16.2476 28.5446 16.1659 28.9372 16.1209 29.2195C16.0718 29.522 15.806 29.7348 15.4992 29.7266C15.1271 29.7184 14.8448 29.383 14.9061 29.0191C14.9798 28.5569 15.1311 27.8738 15.4256 27.0109C15.5033 26.7901 15.4338 26.5364 15.2497 26.3933C12.0759 23.9885 12.2355 18.7902 15.6219 15.4037C19.221 11.8005 25.8139 10.8066 25.8139 10.8066C25.8139 10.8066 29.1554 17.1419 27.2005 22.9537Z" fill="#CDCDCD"/>
</g>
</svg>
