<svg width="41" height="42" viewBox="0 0 41 42" fill="none" xmlns="http://www.w3.org/2000/svg">
<path d="M12.5581 39.3065H28.2341C34.1278 39.3065 38.9056 34.5287 38.9056 28.635V12.959C38.9056 7.06529 34.1278 2.2875 28.2341 2.2875H12.5581C6.66441 2.2875 1.88662 7.06529 1.88662 12.959V28.635C1.88662 34.5287 6.66441 39.3065 12.5581 39.3065Z" fill="#232A33" stroke="#2E3745" stroke-width="1.387"/>
<mask id="mask0_5144_1486" style="mask-type:luminance" maskUnits="userSpaceOnUse" x="3" y="4" width="35" height="34">
<path d="M3.77856 37.418H37.0134V4.1831H3.77856V37.418Z" fill="white"/>
</mask>
<g mask="url(#mask0_5144_1486)">
<mask id="mask1_5144_1486" style="mask-type:luminance" maskUnits="userSpaceOnUse" x="3" y="4" width="35" height="34">
<path d="M3.77856 37.4219H37.0134V4.18701H3.77856V37.4219Z" fill="white"/>
</mask>
<g mask="url(#mask1_5144_1486)">
<g clip-path="url(#clip0_5144_1486)">
<mask id="mask2_5144_1486" style="mask-type:luminance" maskUnits="userSpaceOnUse" x="5" y="5" width="30" height="32">
<path d="M5.16895 36.3169H34.6649V5.85156H5.16895V36.3169Z" fill="white"/>
</mask>
<g mask="url(#mask2_5144_1486)">
<path fill-rule="evenodd" clip-rule="evenodd" d="M29.4028 18.952H28.8904C27.9487 18.952 27.0486 18.5781 26.3839 17.9134C25.7192 17.2487 24.8884 16.4316 24.0852 15.6285C22.1049 13.6759 18.9199 13.6759 16.9535 15.6285C16.1365 16.4455 15.3333 17.2487 14.6686 17.8995C14.0039 18.5504 13.1038 18.9381 12.1622 18.9381H11.6636C10.8189 18.9381 10.1404 19.6305 10.1404 20.4614C10.1404 21.2922 10.8189 21.9846 11.6636 21.9846H12.1483C13.09 21.9846 13.9901 22.3585 14.6548 23.0232C15.3749 23.7572 16.1642 24.5465 16.9535 25.322C18.9199 27.2884 22.1049 27.2745 24.0713 25.322C24.8607 24.5465 25.65 23.7572 26.3701 23.0232C27.0348 22.3447 27.9349 21.9708 28.8904 21.9708H29.3889C30.2336 21.9708 30.9122 21.2922 30.9122 20.4475C30.9122 19.6028 30.2336 18.9243 29.3889 18.9243L29.4028 18.952ZM19.0307 23.5633L15.9426 20.4752L19.0307 17.401C19.8616 16.5701 21.2048 16.5701 22.0218 17.401L25.1099 20.4752L22.0218 23.5633C21.191 24.3942 19.8477 24.3942 19.0169 23.5633H19.0307Z" fill="#CDCDCD"/>
</g>
</g>
</g>
</g>
<defs>
<clipPath id="clip0_5144_1486">
<rect width="31.8501" height="30.4653" fill="white" transform="translate(4.61499 5.85156)"/>
</clipPath>
</defs>
</svg>
